grf
version=1
nRows=16
nColumns=46
inDegrees=yes
endheader
time	ground_force_1_vx	ground_force_1_vy	ground_force_1_vz	ground_force_1_px	ground_force_1_py	ground_force_1_pz	ground_moment_1_mx	ground_moment_1_my	ground_moment_1_mz	ground_force_2_vx	ground_force_2_vy	ground_force_2_vz	ground_force_2_px	ground_force_2_py	ground_force_2_pz	ground_moment_2_mx	ground_moment_2_my	ground_moment_2_mz	ground_force_3_vx	ground_force_3_vy	ground_force_3_vz	ground_force_3_px	ground_force_3_py	ground_force_3_pz	ground_moment_3_mx	ground_moment_3_my	ground_moment_3_mz	ground_force_4_vx	ground_force_4_vy	ground_force_4_vz	ground_force_4_px	ground_force_4_py	ground_force_4_pz	ground_moment_4_mx	ground_moment_4_my	ground_moment_4_mz	ground_force_5_vx	ground_force_5_vy	ground_force_5_vz	ground_force_5_px	ground_force_5_py	ground_force_5_pz	ground_moment_5_mx	ground_moment_5_my	ground_moment_5_mz
1.205000	0.000000	0.000000	0.000000	0.000000	0.000000	0.000000	0.000000	0.000000	0.000000	0.000000	0.000000	0.000000	0.000000	0.000000	0.000000	0.000000	0.000000	0.000000	0.000000	0.000000	0.000000	0.000000	0.000000	0.000000	0.000000	0.000000	0.000000	-0.128511	561.973746	-46.574359	0.200981	0.000000	-0.887710	-0.000000	8.016703	0.000000	-1.490274	546.386793	51.780377	0.237006	0.000000	-1.589590	0.000000	-7.311345	-0.000000
1.205500	0.000000	0.000000	0.000000	0.000000	0.000000	0.000000	0.000000	0.000000	0.000000	0.000000	0.000000	0.000000	0.000000	0.000000	0.000000	0.000000	0.000000	0.000000	0.000000	0.000000	0.000000	0.000000	0.000000	0.000000	0.000000	0.000000	0.000000	-0.091115	561.973002	-46.428318	0.200980	0.000000	-0.887725	-0.000000	8.018752	0.000000	-1.481680	546.524206	51.687041	0.237026	0.000000	-1.589563	0.000000	-7.315155	-0.000000
1.206000	0.000000	0.000000	0.000000	0.000000	0.000000	0.000000	0.000000	0.000000	0.000000	0.000000	0.000000	0.000000	0.000000	0.000000	0.000000	0.000000	0.000000	0.000000	0.000000	0.000000	0.000000	0.000000	0.000000	0.000000	0.000000	0.000000	0.000000	-0.053456	561.974325	-46.281056	0.200977	0.000000	-0.887740	-0.000000	8.020983	0.000000	-1.472539	546.659669	51.592692	0.237046	0.000000	-1.589536	0.000000	-7.318976	-0.000000
1.206500	0.000000	0.000000	0.000000	0.000000	0.000000	0.000000	0.000000	0.000000	0.000000	0.000000	0.000000	0.000000	0.000000	0.000000	0.000000	0.000000	0.000000	0.000000	0.000000	0.000000	0.000000	0.000000	0.000000	0.000000	0.000000	0.000000	0.000000	-0.015509	561.977624	-46.132600	0.200975	0.000000	-0.887755	-0.000000	8.023398	0.000000	-1.462843	546.793079	51.497280	0.237066	0.000000	-1.589510	0.000000	-7.322800	-0.000000
1.207000	0.000000	0.000000	0.000000	0.000000	0.000000	0.000000	0.000000	0.000000	0.000000	0.000000	0.000000	0.000000	0.000000	0.000000	0.000000	0.000000	0.000000	0.000000	0.000000	0.000000	0.000000	0.000000	0.000000	0.000000	0.000000	0.000000	0.000000	0.022751	561.982811	-45.982977	0.200972	0.000000	-0.887772	-0.000000	8.026000	0.000000	-1.452593	546.924305	51.400763	0.237086	0.000000	-1.589483	0.000000	-7.326622	-0.000000
1.207500	0.000000	0.000000	0.000000	0.000000	0.000000	0.000000	0.000000	0.000000	0.000000	0.000000	0.000000	0.000000	0.000000	0.000000	0.000000	0.000000	0.000000	0.000000	0.000000	0.000000	0.000000	0.000000	0.000000	0.000000	0.000000	0.000000	0.000000	0.061346	561.989805	-45.832208	0.200968	0.000000	-0.887788	-0.000000	8.028791	0.000000	-1.441800	547.053206	51.303100	0.237106	0.000000	-1.589457	0.000000	-7.330437	-0.000000
1.208000	0.000000	0.000000	0.000000	0.000000	0.000000	0.000000	0.000000	0.000000	0.000000	0.000000	0.000000	0.000000	0.000000	0.000000	0.000000	0.000000	0.000000	0.000000	0.000000	0.000000	0.000000	0.000000	0.000000	0.000000	0.000000	0.000000	0.000000	0.100299	561.998522	-45.680312	0.200965	0.000000	-0.887805	-0.000000	8.031773	0.000000	-1.430487	547.179640	51.204255	0.237126	0.000000	-1.589431	0.000000	-7.334241	-0.000000
1.208500	0.000000	0.000000	0.000000	0.000000	0.000000	0.000000	0.000000	0.000000	0.000000	0.000000	0.000000	0.000000	0.000000	0.000000	0.000000	0.000000	0.000000	0.000000	0.000000	0.000000	0.000000	0.000000	0.000000	0.000000	0.000000	0.000000	0.000000	0.139634	562.008876	-45.527310	0.200960	0.000000	-0.887823	-0.000000	8.034944	0.000000	-1.418685	547.303481	51.104190	0.237146	0.000000	-1.589406	0.000000	-7.338031	-0.000000
1.209000	0.000000	0.000000	0.000000	0.000000	0.000000	0.000000	0.000000	0.000000	0.000000	0.000000	0.000000	0.000000	0.000000	0.000000	0.000000	0.000000	0.000000	0.000000	0.000000	0.000000	0.000000	0.000000	0.000000	0.000000	0.000000	0.000000	0.000000	0.179374	562.020783	-45.373222	0.200956	0.000000	-0.887841	-0.000000	8.038304	0.000000	-1.406428	547.424629	51.002868	0.237167	0.000000	-1.589380	0.000000	-7.341808	-0.000000
1.209500	0.000000	0.000000	0.000000	0.000000	0.000000	0.000000	0.000000	0.000000	0.000000	0.000000	0.000000	0.000000	0.000000	0.000000	0.000000	0.000000	0.000000	0.000000	0.000000	0.000000	0.000000	0.000000	0.000000	0.000000	0.000000	0.000000	0.000000	0.219538	562.034159	-45.218074	0.200951	0.000000	-0.887860	-0.000000	8.041851	0.000000	-1.393759	547.543012	50.900254	0.237187	0.000000	-1.589355	0.000000	-7.345573	-0.000000
1.210000	0.000000	0.000000	0.000000	0.000000	0.000000	0.000000	0.000000	0.000000	0.000000	0.000000	0.000000	0.000000	0.000000	0.000000	0.000000	0.000000	0.000000	0.000000	0.000000	0.000000	0.000000	0.000000	0.000000	0.000000	0.000000	0.000000	0.000000	0.260140	562.048934	-45.061890	0.200945	0.000000	-0.887880	-0.000000	8.045584	0.000000	-1.380727	547.658587	50.796316	0.237207	0.000000	-1.589330	0.000000	-7.349326	-0.000000
1.210500	0.000000	0.000000	0.000000	0.000000	0.000000	0.000000	0.000000	0.000000	0.000000	0.000000	0.000000	0.000000	0.000000	0.000000	0.000000	0.000000	0.000000	0.000000	0.000000	0.000000	0.000000	0.000000	0.000000	0.000000	0.000000	0.000000	0.000000	0.301195	562.065053	-44.904695	0.200940	0.000000	-0.887899	-0.000000	8.049499	0.000000	-1.367392	547.771334	50.691030	0.237228	0.000000	-1.589305	0.000000	-7.353069	-0.000000
1.211000	0.000000	0.000000	0.000000	0.000000	0.000000	0.000000	0.000000	0.000000	0.000000	0.000000	0.000000	0.000000	0.000000	0.000000	0.000000	0.000000	0.000000	0.000000	0.000000	0.000000	0.000000	0.000000	0.000000	0.000000	0.000000	0.000000	0.000000	0.342714	562.082475	-44.746514	0.200934	0.000000	-0.887920	-0.000000	8.053593	0.000000	-1.353815	547.881245	50.584374	0.237248	0.000000	-1.589281	0.000000	-7.356805	-0.000000
1.211500	0.000000	0.000000	0.000000	0.000000	0.000000	0.000000	0.000000	0.000000	0.000000	0.000000	0.000000	0.000000	0.000000	0.000000	0.000000	0.000000	0.000000	0.000000	0.000000	0.000000	0.000000	0.000000	0.000000	0.000000	0.000000	0.000000	0.000000	0.384708	562.101165	-44.587368	0.200927	0.000000	-0.887941	-0.000000	8.057860	0.000000	-1.340064	547.988309	50.476334	0.237269	0.000000	-1.589257	0.000000	-7.360535	-0.000000
1.212000	0.000000	0.000000	0.000000	0.000000	0.000000	0.000000	0.000000	0.000000	0.000000	0.000000	0.000000	0.000000	0.000000	0.000000	0.000000	0.000000	0.000000	0.000000	0.000000	0.000000	0.000000	0.000000	0.000000	0.000000	0.000000	0.000000	0.000000	0.427189	562.121074	-44.427274	0.200921	0.000000	-0.887963	-0.000000	8.062292	0.000000	-1.326200	548.092505	50.366901	0.237290	0.000000	-1.589233	0.000000	-7.364259	-0.000000
1.212500	0.000000	0.000000	0.000000	0.000000	0.000000	0.000000	0.000000	0.000000	0.000000	0.000000	0.000000	0.000000	0.000000	0.000000	0.000000	0.000000	0.000000	0.000000	0.000000	0.000000	0.000000	0.000000	0.000000	0.000000	0.000000	0.000000	0.000000	0.470167	562.142143	-44.266245	0.200914	0.000000	-0.887985	-0.000000	8.066885	0.000000	-1.312286	548.193808	50.256077	0.237311	0.000000	-1.589209	0.000000	-7.367978	-0.000000
